<?xml version="1.0" encoding="UTF-8"?>
<!DOCTYPE svg PUBLIC "-//W3C//DTD SVG 1.1//EN" "http://www.w3.org/Graphics/SVG/1.1/DTD/svg11.dtd">
<!-- Creator: CorelDRAW X7 -->
<svg xmlns="http://www.w3.org/2000/svg" xml:space="preserve" width="100mm" height="40mm" version="1.1" style="shape-rendering:geometricPrecision; text-rendering:geometricPrecision; image-rendering:optimizeQuality; fill-rule:evenodd; clip-rule:evenodd"
viewBox="0 0 10000 4000"
 xmlns:xlink="http://www.w3.org/1999/xlink"
 enable-background="new 0 0 841.9 595.3">
 <defs>
  <style type="text/css">
   <![CDATA[
    .fil0 {fill:#D75D72}
   ]]>
  </style>
 </defs>
 <g id="Слой_x0020_1">
  <metadata id="CorelCorpID_0Corel-Layer"/>
  <g id="Booseed_2_">
   <g>
    <path class="fil0" d="M3914 1890c0,-5 -8,-10 -13,-10 -59,-5 -117,-70 -172,-65 -67,10 -127,-27 -189,-27 -75,0 -152,-18 -227,-28 -73,-10 -140,-12 -210,-17 -7,-5 -17,-10 -35,-23 20,-12 35,-27 48,-30l152 -69c25,-5 30,-30 55,-35 50,-13 97,-30 147,-45 25,-13 47,-30 72,-40 50,-28 123,-28 170,-53 55,-22 102,-57 157,-92 25,-12 37,-27 35,-57 0,-30 0,-53 -5,-87l-37 -158c-18,-82 -63,-144 -118,-197 -20,63 -20,63 -67,53 -110,-30 -224,-53 -334,-88 -38,-17 -80,-27 -127,-27 -105,0 -210,-12 -312,-22 -55,0 -115,-13 -170,-10 -60,12 -117,12 -177,10 -37,-10 -75,0 -110,0 -55,5 -109,12 -164,17 -75,5 -148,5 -220,12 -140,23 -279,45 -416,70 -63,10 -123,28 -182,53 -103,40 -198,82 -300,122 -50,17 -75,62 -127,70 -7,45 -47,57 -55,109 -5,18 -7,35 -17,40l0 5c5,5 5,10 7,18 50,120 25,65 50,197 20,82 20,92 185,27 20,30 37,10 67,-30 42,-44 92,-44 130,-92 25,-52 55,-35 87,-62 47,-30 269,-70 312,-88 62,-29 122,-44 194,-57 55,-10 140,-47 227,-47 13,-5 30,5 43,5 35,-5 47,10 42,57 -5,80 0,202 -12,277 -8,45 -38,92 -55,132 -5,5 -13,10 -18,10 -47,18 -92,30 -142,48 -7,12 -25,39 -47,74 30,10 47,18 67,18 42,0 75,27 102,62l38 65c17,17 20,40 20,65 -5,80 -5,145 0,212 17,184 35,357 67,524 5,12 5,27 8,40 5,52 0,69 -48,69 -197,13 -539,103 -666,-82 -20,-40 -47,-52 -85,-47 0,27 5,47 0,70 -7,39 5,122 -12,167 -20,45 -30,12 -13,57 5,13 5,35 8,52 25,138 37,123 67,260 5,17 649,52 661,0 55,-28 115,47 152,-28 0,-5 8,-10 18,-12 47,-30 130,-47 189,-52 13,0 30,-10 43,-28 17,-17 37,-22 62,-17 8,5 18,5 30,0 18,-13 75,-45 87,-13 25,-62 75,-12 115,-47 38,-35 102,-53 152,-63 35,-5 68,-22 103,-29 102,-18 182,-40 269,-105 62,-35 122,-80 190,-127 29,-23 54,-65 97,-45 5,0 17,-13 25,-18 55,-57 117,-115 172,-172 55,-70 105,-110 157,-172 37,-65 42,-197 5,-249 -62,-100 -130,-125 -202,-205zm-1252 -484c5,-22 37,-105 30,-127 -60,-137 -25,-215 117,-195 17,5 37,-12 60,-17l47 22c35,10 68,18 97,-17 8,-10 20,22 35,22 8,0 18,0 25,-5 85,-35 165,-5 250,-10 75,-10 134,13 207,45 -73,65 -734,434 -861,444 -2,-17 -10,-139 -7,-162zm1222 826c-50,52 -165,109 -214,157 -35,30 -75,52 -115,80 -80,47 -160,80 -237,114 -35,10 -63,13 -97,18 -60,10 -110,40 -170,57 -67,13 -135,13 -202,28 -67,10 -135,17 -202,30 -30,5 -43,-13 -50,-40 0,-13 -5,-30 -5,-48 -5,-102 -8,-212 -8,-316 0,-70 5,-155 5,-225 5,-30 5,-62 5,-105 0,-30 13,-45 38,-47 105,-10 214,-18 324,-23 92,-5 190,-10 287,18 30,10 62,12 92,17 103,28 207,40 305,70 54,18 157,97 209,120 20,10 43,17 72,30 -15,35 -22,52 -37,65zm519 272c0,5 5,5 5,5l0 -5 -5 0zm5 -8l0 8 12 0c0,-3 0,-8 -12,-8zm7 -105l-5 0c0,13 5,23 5,23l8 -10c0,-10 -3,-18 -8,-13zm2098 220c5,5 5,10 8,12l5 -5c-5,-2 -8,-7 -13,-7zm691 0c5,5 5,10 8,12l4 -5c-4,-2 -7,-7 -12,-7zm1100 -404c-5,30 -12,65 -25,97 -5,13 -12,28 -20,35 -5,12 -17,5 -20,-5l0 -17c0,-63 5,-123 0,-190 -5,-52 0,-110 -5,-162 0,-28 -12,-48 -12,-75 -5,-57 -5,-120 0,-175 5,-82 12,-167 35,-249 17,-87 35,-175 47,-264 20,-98 75,-220 80,-277 7,-53 -13,-80 -62,-83 -48,-5 -88,-10 -135,-12 -38,0 -68,22 -73,52 -5,28 -7,53 -12,83 -17,184 -55,374 -50,566 0,5 -5,12 -5,22 -12,-5 -25,-10 -37,-10l-140 -12c-20,0 -47,10 -72,5 -35,-5 -55,10 -73,35 -17,30 -30,57 -42,87 -13,30 -20,62 -30,92 -7,48 -30,93 -30,145 0,40 -17,80 -30,120l0 5c-17,12 -17,35 -17,52 0,8 0,13 0,20 -15,32 -28,60 -35,70 -38,52 -75,102 -115,155 -30,39 -62,79 -102,109 -18,13 -20,13 -35,-10 -13,-17 -25,-35 -35,-57 -30,-62 -20,-97 37,-132 0,0 5,0 8,-5 12,-13 25,-28 37,-45 8,-13 20,-28 30,-40 5,-13 13,-28 20,-35 8,-17 13,-30 20,-47 8,-13 18,-23 25,-35 17,-28 20,-58 25,-83 0,-12 0,-27 5,-40 17,-44 25,-92 35,-139 5,-35 12,-70 0,-110 -13,-30 -18,-65 -20,-97 -5,-13 -8,-18 -20,-23 -18,0 -37,-5 -50,-12 -35,-28 -72,-40 -110,-45 -60,-8 -117,-27 -177,-23 -22,5 -32,5 -40,20l-2 0 0 8c-13,30 -25,52 -33,82 -17,35 -35,70 -35,105 -5,35 -17,57 -29,80 -8,22 -20,45 -30,65 -5,12 -5,30 -8,45 -12,34 -20,74 -37,109 -13,30 -18,63 -18,98 0,5 0,10 0,15 -17,39 -35,74 -42,87 -38,52 -75,102 -115,155 -30,39 -62,79 -102,109 -18,13 -20,13 -35,-10 -13,-17 -25,-35 -35,-57 -30,-62 -20,-97 37,-132 0,0 5,0 8,-5 12,-13 25,-28 37,-45 8,-13 20,-28 30,-40 5,-13 13,-28 20,-35 8,-17 13,-30 20,-47 8,-13 18,-23 25,-35 18,-28 20,-58 25,-83 0,-12 0,-27 5,-40 17,-44 25,-92 35,-139 5,-35 12,-70 0,-110 -13,-30 -18,-65 -20,-97 -5,-13 -7,-18 -20,-23 -17,0 -37,-5 -50,-12 -35,-28 -72,-40 -110,-45 -59,-8 -117,-27 -177,-23 -25,5 -35,5 -42,28 -13,30 -25,52 -35,82 -17,35 -35,70 -35,105 -5,35 -17,57 -30,80 -7,22 -20,45 -30,65 -5,12 -5,30 -7,45 0,2 0,2 -3,5 -85,52 -199,87 -267,137 -12,12 -35,10 -55,5 13,-28 30,-53 43,-80 7,-18 7,-35 17,-52 8,-28 25,-53 35,-80 18,-48 35,-103 35,-155 0,-12 0,-27 5,-35 0,-22 5,-47 5,-70 0,-12 -7,-27 -12,-30 -13,-12 -30,-17 -48,-22 -35,0 -75,-5 -109,0 -18,0 -38,17 -50,30 -13,12 0,30 5,45 5,5 5,10 5,17 -8,5 -18,5 -20,5 -38,0 -75,5 -115,0 -25,0 -42,10 -55,35 -20,48 -50,92 -67,145 -8,22 -8,52 -20,80 0,5 0,12 5,17 15,23 12,52 15,80 -3,0 -5,0 -8,0 -7,0 -20,0 -25,5 -25,35 -62,40 -97,47 -25,5 -30,-5 -35,-27 -5,-70 -5,-140 -12,-207 -8,-70 -25,-137 -43,-202 -12,-45 -42,-83 -25,-137 13,-35 -37,-83 -80,-83 -24,0 -49,0 -74,5 -43,10 -88,10 -105,63 -25,87 -50,179 -50,272 0,29 -17,39 -42,39 -38,-10 -75,-12 -115,-17 -30,-10 -75,0 -80,22l0 88c-12,70 -20,137 -35,207 0,5 0,12 -5,17 -7,10 -20,18 -30,28 -5,-10 -7,-23 -7,-35 0,-140 -48,-255 -142,-352 -13,-12 -25,-27 -30,-40 -8,-40 -30,-47 -63,-45 -25,5 -55,5 -80,18 -20,12 -54,30 -59,57 -18,45 -18,97 -20,145 0,40 -13,52 -50,47 -8,0 -20,-5 -30,5 -18,10 -38,23 -43,40 -7,30 -7,62 -7,97 5,145 -13,295 20,439 12,63 12,128 25,190 12,47 30,102 55,140 50,69 122,109 202,132 12,5 37,0 47,-10 18,-23 35,-53 42,-83 25,-87 50,-179 73,-271 20,-93 37,-185 55,-272 5,-18 12,-28 20,-40 5,12 17,22 17,35 13,137 25,267 38,404 7,82 24,167 72,237 35,47 60,104 122,137 47,17 87,45 142,47 8,0 20,-5 30,-12 18,-23 38,-45 50,-70 25,-62 55,-122 72,-185 35,-97 55,-197 85,-294 8,-35 18,-65 20,-102 8,-75 13,-150 18,-225 7,-74 12,-82 84,-87 58,0 110,-17 153,-55 5,5 7,10 12,15 38,45 85,80 130,122 -25,30 -48,65 -75,93 -25,22 -42,47 -62,79 -25,45 -48,88 -73,133 -42,65 -72,139 -87,219 -5,23 0,30 12,45 35,40 73,65 115,87 30,18 50,18 75,10 17,-5 37,-10 60,-12 25,0 50,-10 72,-30 20,-28 43,-52 60,-80 13,-17 25,-27 42,-35 20,-12 48,-22 63,-45 42,-47 85,-87 115,-149 12,-23 25,-45 42,-65 5,-13 17,-28 17,-40 0,-10 -7,-23 -12,-35 12,-18 17,-35 7,-57 -24,-48 -47,-98 -87,-133 -17,-17 -25,-40 -42,-62 55,-62 147,-127 207,-172 0,0 0,0 2,0 -5,12 -7,25 -15,35 -12,30 -17,62 -17,97 0,65 5,132 0,197 -5,65 30,115 62,162 18,18 30,35 43,53 5,10 12,17 20,27 12,13 24,30 42,45 5,10 12,12 20,17 25,13 50,30 80,40 30,10 60,18 87,18 -5,-5 -12,-5 -17,-10l0 -5c7,5 12,5 20,10 -5,0 -5,5 -5,5 29,5 62,5 92,0 17,0 35,-10 47,-18 20,-12 38,-30 60,-45 20,-17 30,-34 25,-52 20,-22 17,-57 37,-75 18,-17 20,-30 25,-52 13,-40 28,-85 48,-132 0,5 0,7 0,12 -5,65 30,115 62,162 18,18 30,35 43,53 4,10 12,17 19,27 13,13 25,30 43,45 5,10 12,12 20,17 25,13 50,30 80,40 30,10 59,18 87,18 -5,-5 -13,-5 -18,-10l0 -5c8,5 13,5 20,10 -5,0 -5,5 -5,5 30,5 63,5 93,0 17,0 35,-10 47,-18 20,-12 38,-30 60,-45 20,-17 30,-34 25,-52 20,-22 17,-57 37,-75 18,-17 20,-30 25,-52 13,-40 28,-82 45,-125 0,28 3,55 3,82 5,30 5,65 7,98 8,35 -5,70 30,92l0 10c-5,40 18,70 20,110 7,40 37,65 72,75 25,5 48,10 73,17 17,-17 42,-17 67,-17 18,-5 35,-10 42,-23 18,-30 20,-70 48,-102l0 -13c5,-30 5,-62 17,-97 13,-45 18,-92 20,-140 5,-5 0,-12 5,-12 8,-12 18,-30 35,-27 -5,22 -7,39 -7,57 0,10 7,12 12,17 0,48 5,98 5,145 0,13 -7,27 -12,40 -13,27 -18,52 -5,75 25,35 20,75 17,110 -7,44 13,82 25,122 18,35 42,65 47,115 18,0 30,0 48,4 12,0 30,-4 42,5 30,18 68,13 103,18 54,5 79,-27 79,-80 0,-140 0,-282 -5,-421 0,-98 8,-145 48,-242l0 -18c25,-154 80,-264 157,-381 12,-23 20,-45 30,-65 -162,52 -287,389 -292,399zm-3821 464c-8,-5 -8,-10 -13,-13 5,0 8,0 18,-5 0,10 -5,15 -5,18zm99 -434c-12,80 -17,162 -34,237 -13,65 -35,127 -55,194 -5,-5 0,-12 -5,-17 -20,-5 -25,-10 -20,-28 0,-10 0,-17 -5,-27 0,10 -8,17 0,27 0,5 0,10 -5,13 -8,0 -13,-5 -13,-13 -5,-22 -5,-40 -12,-62l0 -12c5,-13 5,-28 5,-40l0 -70c5,-145 -5,-70 -18,-35 0,12 -5,35 -5,45 13,5 8,17 8,30 5,22 -8,47 -18,74 0,-12 5,-27 -5,-44 0,7 -2,12 -2,17 0,-2 -3,-5 -5,-12l0 -10 5 0c0,-5 5,-13 5,-28l0 -40 0 -12c5,-13 0,-25 0,-38 0,3 0,3 5,3 -5,-35 -5,-105 -8,-132 5,-5 5,-10 8,-13 -5,-30 -8,-65 -13,-102 5,-10 13,-30 20,-35 13,0 30,10 48,17 30,18 55,35 85,53 27,15 44,25 34,60zm15 -167c-12,-10 -30,-13 -30,-23 -17,-80 -72,-155 -59,-242 5,-22 7,-45 42,-35 20,98 67,190 47,300zm711 47c-25,102 -50,197 -80,294 -12,58 -24,115 -47,167 -17,53 -42,105 -62,158 -5,5 -18,10 -20,17 -5,-10 -13,-17 -13,-30 0,-82 -5,-172 -5,-259l0 -377c0,-52 8,-105 13,-167l50 35c50,45 102,82 152,127 7,5 17,28 12,35zm23 -210c-13,0 -35,-22 -38,-39 -17,-63 -25,-128 -37,-190l7 0c0,-17 -5,-35 0,-47 5,-13 18,-28 25,-28 8,0 30,13 30,23 13,74 20,154 30,229 5,5 0,10 0,10 -5,15 15,42 -17,42zm514 -84c0,-18 5,-18 25,-23 5,13 5,23 5,35 0,45 12,87 24,127 5,10 5,23 8,30l20 0c-8,0 -13,5 -20,5 -30,-12 -35,-47 -50,-70 -22,-32 -17,-67 -12,-104zm162 516c-18,27 -35,47 -55,70 -18,12 -30,30 -43,47 -24,30 -47,63 -72,93 -17,17 -30,39 -47,57 -5,5 -13,12 -20,17 -25,-22 -20,-47 -18,-74 5,-45 13,-88 20,-133 0,-5 0,-10 5,-10 30,-30 38,-79 73,-109 7,-10 17,-23 25,-35 19,-28 34,-30 59,-10 13,10 30,17 48,30 7,5 12,12 17,17 13,13 13,25 8,40zm536 -190c-5,5 -7,10 -17,23 -8,-28 -8,-45 -8,-65l0 -27c-17,-40 0,-80 8,-115 12,-58 29,-115 54,-167 8,-23 18,-48 25,-75 5,-5 8,-13 20,-28 5,13 5,18 5,23 0,40 -5,80 -5,122 0,10 -5,18 -7,30 0,10 -5,17 -5,27 5,28 -5,53 -13,80 -17,45 -35,93 -50,137 -2,13 -2,20 -7,35zm691 0c-5,5 -8,10 -18,23 -7,-28 -7,-45 -7,-65l0 -27c-17,-40 0,-80 7,-115 13,-58 30,-115 55,-167 8,-23 18,-48 25,-75 5,-5 8,-13 20,-28 5,13 5,18 5,23 0,40 -5,80 -5,122 0,10 -5,18 -7,30 0,10 -5,17 -5,27 5,28 -5,53 -13,80 -17,45 -35,93 -50,137 -2,13 -2,20 -7,35zm806 -431c-13,17 -8,35 -8,52 0,53 0,105 -5,157 -5,30 -20,58 -35,83 -17,30 -30,62 -50,92 -30,47 -47,102 -74,150 -5,10 -8,27 -13,40 -7,5 -20,10 -35,12 -12,-27 -5,-57 -5,-82l0 -63c5,-30 5,-64 8,-97 0,-12 5,-22 5,-35 -8,-62 20,-115 35,-172 7,-40 19,-80 47,-105 37,-40 75,-75 140,-70 -8,15 -3,33 -10,38z"/>
   </g>
  </g>
 </g>
</svg>
